<mxfile host="65bd71144e">
    <diagram id="VvXkM-ErnBBBnk4BNcHF" name="Page-1">
        <mxGraphModel dx="1038" dy="1884" grid="0" gridSize="10" guides="1" tooltips="1" connect="1" arrows="1" fold="1" page="1" pageScale="1" pageWidth="850" pageHeight="1100" background="#ffffff" math="0" shadow="0">
            <root>
                <mxCell id="0"/>
                <mxCell id="1" parent="0"/>
                <mxCell id="48" value="" style="rounded=1;whiteSpace=wrap;html=1;labelBackgroundColor=none;strokeColor=#000000;fontColor=#000000;fillColor=#E6E6E6;" parent="1" vertex="1">
                    <mxGeometry x="41" y="-7" width="1142" height="515" as="geometry"/>
                </mxCell>
                <mxCell id="2" value="Azure Api Management Virtual Network" style="rounded=1;whiteSpace=wrap;html=1;fillColor=#FFFFFF;strokeColor=#0000CC;dashed=1;fontColor=#000000;labelPosition=center;verticalLabelPosition=top;align=center;verticalAlign=bottom;" parent="1" vertex="1">
                    <mxGeometry x="59" y="276" width="452" height="176" as="geometry"/>
                </mxCell>
                <mxCell id="4" value="Application Gateway Subnet" style="rounded=1;whiteSpace=wrap;html=1;dashed=1;strokeColor=#0000CC;fontColor=#000000;fillColor=none;labelPosition=center;verticalLabelPosition=top;align=center;verticalAlign=bottom;" parent="1" vertex="1">
                    <mxGeometry x="117" y="306" width="126" height="99" as="geometry"/>
                </mxCell>
                <mxCell id="5" value="" style="aspect=fixed;html=1;points=[];align=center;image;fontSize=12;image=img/lib/azure2/networking/Application_Gateways.svg;dashed=1;strokeColor=#000000;fontColor=#000000;fillColor=none;" parent="1" vertex="1">
                    <mxGeometry x="148" y="323.5" width="64" height="64" as="geometry"/>
                </mxCell>
                <mxCell id="6" value="" style="aspect=fixed;html=1;points=[];align=center;image;fontSize=12;image=img/lib/azure2/networking/Network_Security_Groups.svg;dashed=1;strokeColor=#0000CC;fontColor=#000000;fillColor=none;" parent="1" vertex="1">
                    <mxGeometry x="128" y="292.5" width="25.53" height="31" as="geometry"/>
                </mxCell>
                <mxCell id="96" style="edgeStyle=none;html=1;exitX=0.5;exitY=0;exitDx=0;exitDy=0;entryX=0;entryY=0.5;entryDx=0;entryDy=0;strokeColor=#99004D;strokeWidth=2;startArrow=none;startFill=0;endArrow=classic;endFill=1;" edge="1" parent="1" source="7" target="20">
                    <mxGeometry relative="1" as="geometry">
                        <Array as="points">
                            <mxPoint x="388" y="89"/>
                        </Array>
                    </mxGeometry>
                </mxCell>
                <mxCell id="7" value="Api Management Subnet" style="rounded=1;whiteSpace=wrap;html=1;dashed=1;strokeColor=#0000CC;fontColor=#000000;fillColor=none;labelPosition=center;verticalLabelPosition=bottom;align=center;verticalAlign=top;" parent="1" vertex="1">
                    <mxGeometry x="323" y="306" width="126" height="99" as="geometry"/>
                </mxCell>
                <mxCell id="8" value="" style="aspect=fixed;html=1;points=[];align=center;image;fontSize=12;image=img/lib/azure2/integration/API_Management_Services.svg;dashed=1;strokeColor=#0000CC;fontColor=#000000;fillColor=none;" parent="1" vertex="1">
                    <mxGeometry x="353.5" y="327.5" width="65" height="60" as="geometry"/>
                </mxCell>
                <mxCell id="9" value="" style="aspect=fixed;html=1;points=[];align=center;image;fontSize=12;image=img/lib/azure2/networking/Network_Security_Groups.svg;dashed=1;strokeColor=#0000CC;fontColor=#000000;fillColor=none;" parent="1" vertex="1">
                    <mxGeometry x="338" y="292.5" width="25.53" height="31" as="geometry"/>
                </mxCell>
                <mxCell id="90" value="Vnet Peering" style="edgeStyle=none;html=1;entryX=0.75;entryY=0;entryDx=0;entryDy=0;strokeColor=#000000;strokeWidth=1;fontSize=11;fontColor=#000000;startArrow=none;startFill=0;endArrow=none;endFill=0;dashed=1;labelBackgroundColor=none;dashPattern=1 4;" parent="1" source="20" target="2" edge="1">
                    <mxGeometry relative="1" as="geometry"/>
                </mxCell>
                <mxCell id="93" value="Vnet Peering" style="edgeStyle=none;html=1;dashed=1;dashPattern=1 4;labelBackgroundColor=none;strokeColor=#000000;strokeWidth=1;fontSize=11;fontColor=#000000;startArrow=none;startFill=0;endArrow=none;endFill=0;" parent="1" source="20" target="10" edge="1">
                    <mxGeometry relative="1" as="geometry"/>
                </mxCell>
                <mxCell id="95" style="edgeStyle=none;html=1;entryX=1;entryY=0;entryDx=0;entryDy=0;strokeColor=#99004D;strokeWidth=2;" edge="1" parent="1" source="20" target="7">
                    <mxGeometry relative="1" as="geometry"/>
                </mxCell>
                <mxCell id="20" value="Hub Virtual Network" style="rounded=1;whiteSpace=wrap;html=1;fillColor=#FFFFFF;strokeColor=#0000CC;dashed=1;fontColor=#000000;labelPosition=center;verticalLabelPosition=bottom;align=center;verticalAlign=top;" parent="1" vertex="1">
                    <mxGeometry x="420" y="10" width="424" height="158" as="geometry"/>
                </mxCell>
                <mxCell id="21" value="Azure Firewall Subnet" style="rounded=1;whiteSpace=wrap;html=1;dashed=1;strokeColor=#0000CC;fontColor=#000000;fillColor=none;labelPosition=center;verticalLabelPosition=bottom;align=center;verticalAlign=top;" parent="1" vertex="1">
                    <mxGeometry x="475" y="28" width="126" height="99" as="geometry"/>
                </mxCell>
                <mxCell id="22" value="" style="aspect=fixed;html=1;points=[];align=center;image;fontSize=12;image=img/lib/azure2/networking/Firewalls.svg;dashed=1;strokeColor=#0000CC;fontColor=#000000;fillColor=none;" parent="1" vertex="1">
                    <mxGeometry x="502.5" y="44" width="71" height="60" as="geometry"/>
                </mxCell>
                <mxCell id="32" value="Gateway Subnet" style="rounded=1;whiteSpace=wrap;html=1;dashed=1;strokeColor=#0000CC;fontColor=#000000;fillColor=none;labelPosition=center;verticalLabelPosition=bottom;align=center;verticalAlign=top;" parent="1" vertex="1">
                    <mxGeometry x="664" y="28" width="126" height="99" as="geometry"/>
                </mxCell>
                <mxCell id="34" value="" style="aspect=fixed;html=1;points=[];align=center;image;fontSize=12;image=img/lib/azure2/networking/Virtual_Router.svg;dashed=1;strokeColor=#0000CC;fontColor=#000000;fillColor=none;" parent="1" vertex="1">
                    <mxGeometry x="690" y="43.5" width="68" height="68" as="geometry"/>
                </mxCell>
                <mxCell id="42" style="edgeStyle=none;html=1;entryX=0.5;entryY=0;entryDx=0;entryDy=0;strokeColor=#99004D;strokeWidth=2;fontColor=#000000;startArrow=none;startFill=1;endArrow=none;endFill=0;" parent="1" source="33" target="20" edge="1">
                    <mxGeometry relative="1" as="geometry"/>
                </mxCell>
                <mxCell id="43" value="" style="group" parent="1" vertex="1" connectable="0">
                    <mxGeometry x="470" y="-389" width="320" height="158" as="geometry"/>
                </mxCell>
                <mxCell id="35" value="On-premises network" style="rounded=0;whiteSpace=wrap;html=1;labelBackgroundColor=none;strokeColor=#000000;fontColor=#000000;fillColor=none;labelPosition=center;verticalLabelPosition=top;align=center;verticalAlign=bottom;" parent="43" vertex="1">
                    <mxGeometry width="320" height="158" as="geometry"/>
                </mxCell>
                <mxCell id="36" value="Gateway" style="aspect=fixed;html=1;points=[];align=center;image;fontSize=12;image=img/lib/azure2/networking/Virtual_Router.svg;dashed=1;strokeColor=#0000CC;fontColor=#000000;fillColor=none;labelBackgroundColor=none;" parent="43" vertex="1">
                    <mxGeometry x="132" y="70" width="68" height="68" as="geometry"/>
                </mxCell>
                <mxCell id="37" value="" style="aspect=fixed;html=1;points=[];align=center;image;fontSize=12;image=img/lib/azure2/compute/Virtual_Machine.svg;labelBackgroundColor=none;strokeColor=#000000;fontColor=#000000;fillColor=none;" parent="43" vertex="1">
                    <mxGeometry x="39.5" y="9" width="49.59" height="46" as="geometry"/>
                </mxCell>
                <mxCell id="38" value="" style="aspect=fixed;html=1;points=[];align=center;image;fontSize=12;image=img/lib/azure2/compute/Virtual_Machine.svg;labelBackgroundColor=none;strokeColor=#000000;fontColor=#000000;fillColor=none;" parent="43" vertex="1">
                    <mxGeometry x="137" y="7" width="49.59" height="46" as="geometry"/>
                </mxCell>
                <mxCell id="39" value="" style="aspect=fixed;html=1;points=[];align=center;image;fontSize=12;image=img/lib/azure2/compute/Virtual_Machine.svg;labelBackgroundColor=none;strokeColor=#000000;fontColor=#000000;fillColor=none;" parent="43" vertex="1">
                    <mxGeometry x="234" y="7" width="49.59" height="46" as="geometry"/>
                </mxCell>
                <mxCell id="44" value="" style="edgeStyle=none;html=1;entryX=0.5;entryY=0;entryDx=0;entryDy=0;strokeColor=#99004D;strokeWidth=2;fontColor=#000000;startArrow=classic;startFill=1;endArrow=none;endFill=0;" parent="1" source="35" target="33" edge="1">
                    <mxGeometry relative="1" as="geometry">
                        <mxPoint x="630.246875" y="-231" as="sourcePoint"/>
                        <mxPoint x="631" y="10" as="targetPoint"/>
                    </mxGeometry>
                </mxCell>
                <mxCell id="33" value="" style="aspect=fixed;html=1;points=[];align=left;image;fontSize=12;image=img/lib/azure2/networking/ExpressRoute_Circuits.svg;dashed=1;strokeColor=#0000CC;fontColor=#000000;fillColor=none;labelBackgroundColor=none;labelPosition=right;verticalLabelPosition=middle;verticalAlign=middle;" parent="1" vertex="1">
                    <mxGeometry x="599.9200000000001" y="-145" width="60.16" height="55" as="geometry"/>
                </mxCell>
                <mxCell id="94" style="edgeStyle=none;html=1;exitX=0.25;exitY=0;exitDx=0;exitDy=0;entryX=0.649;entryY=1.019;entryDx=0;entryDy=0;strokeColor=#99004D;startArrow=none;startFill=0;endArrow=classic;endFill=1;strokeWidth=2;entryPerimeter=0;" edge="1" parent="1" source="10" target="20">
                    <mxGeometry relative="1" as="geometry"/>
                </mxCell>
                <mxCell id="10" value="Spoke Apis Virtual Network" style="rounded=1;whiteSpace=wrap;html=1;fillColor=#FFFFFF;strokeColor=#0000CC;dashed=1;fontColor=#000000;labelPosition=center;verticalLabelPosition=top;align=center;verticalAlign=bottom;" parent="1" vertex="1">
                    <mxGeometry x="563" y="264" width="543" height="183" as="geometry"/>
                </mxCell>
                <mxCell id="18" value="" style="group" parent="1" vertex="1" connectable="0">
                    <mxGeometry x="634" y="288.5" width="126" height="99" as="geometry"/>
                </mxCell>
                <mxCell id="15" value="App Service Environment V3 Subnet" style="rounded=1;whiteSpace=wrap;html=1;dashed=1;strokeColor=#0000CC;fontColor=#000000;fillColor=none;labelPosition=center;verticalLabelPosition=bottom;align=center;verticalAlign=top;" parent="18" vertex="1">
                    <mxGeometry width="126" height="99" as="geometry"/>
                </mxCell>
                <mxCell id="12" value="" style="aspect=fixed;html=1;points=[];align=center;image;fontSize=12;image=img/lib/azure2/app_services/App_Service_Environments.svg;dashed=1;strokeColor=#0000CC;fontColor=#000000;fillColor=none;" parent="18" vertex="1">
                    <mxGeometry x="31" y="20" width="64" height="64" as="geometry"/>
                </mxCell>
                <mxCell id="29" value="" style="aspect=fixed;html=1;points=[];align=center;image;fontSize=12;image=img/lib/azure2/networking/Network_Security_Groups.svg;dashed=1;strokeColor=#0000CC;fontColor=#000000;fillColor=none;" parent="18" vertex="1">
                    <mxGeometry x="9" y="-15.5" width="25.53" height="31" as="geometry"/>
                </mxCell>
                <mxCell id="19" value="" style="group" parent="1" vertex="1" connectable="0">
                    <mxGeometry x="955" y="288" width="126" height="99" as="geometry"/>
                </mxCell>
                <mxCell id="17" value="Function Private Endpoint Subnet" style="rounded=1;whiteSpace=wrap;html=1;dashed=1;strokeColor=#0000CC;fontColor=#000000;fillColor=none;labelPosition=center;verticalLabelPosition=bottom;align=center;verticalAlign=top;" parent="19" vertex="1">
                    <mxGeometry width="126" height="99" as="geometry"/>
                </mxCell>
                <mxCell id="11" value="" style="aspect=fixed;html=1;points=[];align=center;image;fontSize=12;image=img/lib/azure2/networking/Private_Endpoint.svg;dashed=1;strokeColor=#0000CC;fontColor=#000000;fillColor=none;" parent="19" vertex="1">
                    <mxGeometry x="25" y="14" width="72" height="66" as="geometry"/>
                </mxCell>
                <mxCell id="31" value="" style="aspect=fixed;html=1;points=[];align=center;image;fontSize=12;image=img/lib/azure2/networking/Network_Security_Groups.svg;dashed=1;strokeColor=#0000CC;fontColor=#000000;fillColor=none;" parent="19" vertex="1">
                    <mxGeometry x="7" y="-11" width="25.53" height="31" as="geometry"/>
                </mxCell>
                <mxCell id="26" value="" style="group" parent="1" vertex="1" connectable="0">
                    <mxGeometry x="790" y="288.5" width="126" height="99" as="geometry"/>
                </mxCell>
                <mxCell id="24" value="Apis Subnet" style="rounded=1;whiteSpace=wrap;html=1;dashed=1;strokeColor=#0000CC;fontColor=#000000;fillColor=none;labelPosition=center;verticalLabelPosition=bottom;align=center;verticalAlign=top;" parent="26" vertex="1">
                    <mxGeometry width="126" height="99" as="geometry"/>
                </mxCell>
                <mxCell id="25" value="" style="aspect=fixed;html=1;points=[];align=center;image;fontSize=12;image=img/lib/azure2/compute/Virtual_Machine.svg;dashed=1;strokeColor=#0000CC;fontColor=#000000;fillColor=none;" parent="26" vertex="1">
                    <mxGeometry x="28.5" y="17.5" width="69" height="64" as="geometry"/>
                </mxCell>
                <mxCell id="27" value="" style="aspect=fixed;html=1;points=[];align=center;image;fontSize=12;image=img/lib/azure2/compute/Function_Apps.svg;dashed=1;strokeColor=#0000CC;fontColor=#000000;fillColor=none;" parent="1" vertex="1">
                    <mxGeometry x="983" y="89" width="68" height="60" as="geometry"/>
                </mxCell>
                <mxCell id="28" style="edgeStyle=none;html=1;exitX=0.5;exitY=0;exitDx=0;exitDy=0;entryX=0.5;entryY=1.1;entryDx=0;entryDy=0;entryPerimeter=0;strokeColor=#000000;fontColor=#000000;" parent="1" source="17" target="27" edge="1">
                    <mxGeometry relative="1" as="geometry"/>
                </mxCell>
                <mxCell id="30" value="" style="aspect=fixed;html=1;points=[];align=center;image;fontSize=12;image=img/lib/azure2/networking/Network_Security_Groups.svg;dashed=1;strokeColor=#0000CC;fontColor=#000000;fillColor=none;" parent="1" vertex="1">
                    <mxGeometry x="796" y="273" width="25.53" height="31" as="geometry"/>
                </mxCell>
            </root>
        </mxGraphModel>
    </diagram>
</mxfile>